<?xml version="1.0" encoding="utf-8"?>
<!-- Generator: Adobe Illustrator 25.2.1, SVG Export Plug-In . SVG Version: 6.00 Build 0)  -->
<svg version="1.1" id="Réteg_1" xmlns="http://www.w3.org/2000/svg" xmlns:xlink="http://www.w3.org/1999/xlink" x="0px" y="0px"
	 viewBox="0 0 16 16" style="enable-background:new 0 0 16 16;" xml:space="preserve">
<style type="text/css">
	.st0{fill:#FFFFFF;}
</style>
<path class="st0" d="M6.5,1h3C9.8,1,10,1.2,10,1.5v1H6v-1C6,1.2,6.2,1,6.5,1z M11,2.5v-1C11,0.7,10.3,0,9.5,0h-3C5.7,0,5,0.7,5,1.5
	v1H2.5c0,0,0,0,0,0h-1C1.2,2.5,1,2.7,1,3s0.2,0.5,0.5,0.5H2l0.9,10.7c0.1,1,1,1.8,2,1.8h6.2c1,0,1.9-0.8,2-1.8L14,3.5h0.5
	C14.8,3.5,15,3.3,15,3s-0.2-0.5-0.5-0.5h-1c0,0,0,0,0,0H11z M13,3.5l-0.8,10.6c0,0.5-0.5,0.9-1,0.9H4.9c-0.5,0-1-0.4-1-0.9L3,3.5H13
	z M5.5,4.5C5.7,4.5,6,4.7,6,5l0.5,8.5C6.5,13.7,6.3,14,6,14c-0.3,0-0.5-0.2-0.5-0.5L5,5C5,4.8,5.2,4.5,5.5,4.5
	C5.5,4.5,5.5,4.5,5.5,4.5L5.5,4.5z M10.5,4.5C10.8,4.5,11,4.8,11,5c0,0,0,0,0,0l-0.5,8.5c0,0.3-0.2,0.5-0.5,0.5s-0.5-0.2-0.5-0.5
	c0,0,0,0,0,0L10,5C10,4.7,10.3,4.5,10.5,4.5z M8,4.5c0.3,0,0.5,0.2,0.5,0.5v8.5C8.5,13.8,8.3,14,8,14c-0.3,0-0.5-0.2-0.5-0.5V5
	C7.5,4.7,7.7,4.5,8,4.5z"/>
</svg>
