<?xml version="1.0" encoding="utf-8"?>
<!-- Generator: Adobe Illustrator 25.2.1, SVG Export Plug-In . SVG Version: 6.00 Build 0)  -->
<svg version="1.1" id="Réteg_1" xmlns="http://www.w3.org/2000/svg" xmlns:xlink="http://www.w3.org/1999/xlink" x="0px" y="0px"
	 viewBox="0 0 16 16" style="enable-background:new 0 0 16 16;" xml:space="preserve">
<style type="text/css">
	.st0{fill:#FFFFFF;}
</style>
<path class="st0" d="M14,1c0.6,0,1,0.4,1,1v12c0,0.6-0.4,1-1,1H2c-0.6,0-1-0.4-1-1V2c0-0.6,0.4-1,1-1H14z M2,0C0.9,0,0,0.9,0,2v12
	c0,1.1,0.9,2,2,2h12c1.1,0,2-0.9,2-2V2c0-1.1-0.9-2-2-2H2z"/>
<path class="st0" d="M11,5c0.3-0.3,0.8-0.3,1.1,0c0.3,0.3,0.3,0.8,0,1l-4,5c-0.3,0.3-0.8,0.3-1.1,0c0,0,0,0,0,0L4.3,8.4
	C4,8.1,4,7.6,4.3,7.3S5,7,5.3,7.3c0,0,0,0,0,0l2.1,2.1L11,5C11,5,11,5,11,5L11,5z"/>
</svg>
