<?xml version="1.0" encoding="utf-8"?>
<!-- Generator: Adobe Illustrator 25.2.1, SVG Export Plug-In . SVG Version: 6.00 Build 0)  -->
<svg version="1.1" id="Réteg_1" xmlns="http://www.w3.org/2000/svg" xmlns:xlink="http://www.w3.org/1999/xlink" x="0px" y="0px"
	 viewBox="0 0 16 16" style="enable-background:new 0 0 16 16;" xml:space="preserve">
<style type="text/css">
	.st0{fill:#5FA7D1;}
	.st1{fill:none;stroke:#5FA7D1;stroke-miterlimit:10;}
</style>
<path class="st0" d="M8.8,5.9c0-0.3-0.2-0.5-0.5-0.5C8,5.4,7.8,5.6,7.8,5.9v1.5H6.3C6,7.4,5.8,7.6,5.8,7.9c0,0.3,0.2,0.5,0.5,0.5
	h1.5v1.5c0,0.3,0.2,0.5,0.5,0.5c0.3,0,0.5-0.2,0.5-0.5V8.4h1.5c0.3,0,0.5-0.2,0.5-0.5c0-0.3-0.2-0.5-0.5-0.5H8.8V5.9z"/>
<ellipse class="st1" cx="8.3" cy="7.9" rx="6.2" ry="6.3"/>
</svg>
