<?xml version="1.0" encoding="utf-8"?>
<!-- Generator: Adobe Illustrator 27.0.1, SVG Export Plug-In . SVG Version: 6.00 Build 0)  -->
<svg version="1.1" id="Réteg_1" xmlns="http://www.w3.org/2000/svg" xmlns:xlink="http://www.w3.org/1999/xlink" x="0px" y="0px"
	 viewBox="0 0 56.7 56.7" style="enable-background:new 0 0 56.7 56.7;" xml:space="preserve">
<style type="text/css">
	.st0{fill:#FFFFFF;}
</style>
<g>
	<g>
		<g>
			<path class="st0" d="M28.4,55.7c15.1,0,27.3-12.3,27.3-27.3C55.7,13.3,43.4,1,28.4,1C13.3,1,1,13.3,1,28.4S13.3,55.7,28.4,55.7z
				 M28.4,4.9c12.9,0,23.5,10.5,23.5,23.5c0,12.9-10.5,23.5-23.5,23.5c-12.9,0-23.5-10.5-23.5-23.5C4.9,15.4,15.4,4.9,28.4,4.9z"/>
			<path class="st0" d="M27,43.9L27,43.9c0.4,0.4,0.9,0.6,1.4,0.6l0,0c0.5,0,1-0.2,1.4-0.6L42,31.7c1.8-1.8,2.8-4.2,2.8-6.8
				s-1-5-2.8-6.8s-4.2-2.8-6.8-2.8s-5,1-6.8,2.8l-0.1,0.1l-0.1-0.1c-1.8-1.8-4.2-2.8-6.8-2.8s-5,1-6.8,2.8c-3.7,3.7-3.7,9.8,0,13.6
				L27,43.9z"/>
		</g>
	</g>
</g>
</svg>
