<?xml version="1.0" encoding="utf-8"?>
<!-- Generator: Adobe Illustrator 27.0.1, SVG Export Plug-In . SVG Version: 6.00 Build 0)  -->
<svg version="1.1" id="Réteg_1" xmlns="http://www.w3.org/2000/svg" xmlns:xlink="http://www.w3.org/1999/xlink" x="0px" y="0px"
	 viewBox="0 0 56.7 56.7" style="enable-background:new 0 0 56.7 56.7;" xml:space="preserve">
<style type="text/css">
	.st0{fill:#FFFFFF;}
</style>
<g id="Réteg_1_1_">
	<path class="st0" d="M28.4,55.7c15.1,0,27.3-12.3,27.3-27.3C55.7,13.3,43.4,1,28.4,1C13.3,1,1,13.3,1,28.4S13.3,55.7,28.4,55.7z
		 M28.4,4.9c12.9,0,23.5,10.5,23.5,23.5c0,12.9-10.5,23.5-23.5,23.5c-12.9,0-23.5-10.5-23.5-23.5C4.9,15.4,15.4,4.9,28.4,4.9z"/>
</g>
<g id="Réteg_2_1_">
</g>
<path class="st0" d="M30.9,28.4l2.8-2.8l4-4l0,0l3.6-3.6c0.8-0.8,0.8-2,0-2.8c-0.8-0.8-2-0.8-2.8,0l-6.4,6.4l0,0l-4,4l-4.4-4.4l0,0
	l-6-6c-0.8-0.8-2-0.8-2.8,0c-0.8,0.8-0.8,2,0,2.8l3.2,3.2l0,0L23,26l2.4,2.4L15,38.7c-0.8,0.8-0.8,2,0,2.8c0.4,0.4,0.8,0.8,1.6,0.4
	c0.4,0,1.2,0,1.6-0.4l10-10.4l10.4,10.4c0.4,0.4,0.8,0.8,1.6,0.4c0.4,0,1.2,0,1.6-0.4c0.8-0.8,0.8-2,0-2.8L30.9,28.4z"/>
</svg>
