<?xml version="1.0" encoding="utf-8"?>
<!-- Generator: Adobe Illustrator 25.2.1, SVG Export Plug-In . SVG Version: 6.00 Build 0)  -->
<svg version="1.1" id="Réteg_1" xmlns="http://www.w3.org/2000/svg" xmlns:xlink="http://www.w3.org/1999/xlink" x="0px" y="0px"
	 viewBox="0 0 56.7 56.7" style="enable-background:new 0 0 56.7 56.7;" xml:space="preserve">
<g>
	<path d="M38.7,47c0,2.7,2.2,4.8,4.8,4.8c2.7,0,4.8-2.1,4.8-4.8s-2.2-4.8-4.8-4.8C40.7,42.2,38.7,44.2,38.7,47z M41.7,47
		c0-1,0.8-1.8,1.8-1.8s1.8,0.8,1.8,1.8s-0.8,1.8-1.8,1.8S41.6,48,41.7,47z"/>
	<path d="M13.2,47c0,2.7,2.2,4.8,4.8,4.8c2.7,0,4.8-2.1,4.8-4.8s-2.2-4.8-4.8-4.8C15.5,42.2,13.2,44.2,13.2,47z M16.2,47
		c0-1,0.8-1.8,1.8-1.8s1.8,0.8,1.8,1.8S19,48.8,18,48.8S16.2,48,16.2,47z"/>
	<path d="M5.2,5v2.8h3.5l5.2,31.4h32.9v-2.9H16.3l-0.6-3.9h27.9c2.5,0,4.7-1.9,5.1-4.3l2.8-17.2H12.2l-1-5.9H5.2z M12.7,13.8h35.4
		l-2.3,13.9c-0.2,0.9-1.2,1.8-2.2,1.8H15.2L12.7,13.8z"/>
</g>
</svg>
