<?xml version="1.0" encoding="utf-8"?>
<!-- Generator: Adobe Illustrator 25.2.1, SVG Export Plug-In . SVG Version: 6.00 Build 0)  -->
<svg version="1.1" id="Layer_1" xmlns="http://www.w3.org/2000/svg" xmlns:xlink="http://www.w3.org/1999/xlink" x="0px" y="0px"
	 viewBox="0 0 56.7 56.7" style="enable-background:new 0 0 56.7 56.7;" xml:space="preserve">
<style type="text/css">
	.st0{fill:#FCEA10;}
	.st1{fill:#FFED00;}
</style>
<g>
	<path class="st0" d="M21.7,39.8c2,1.1,4.2,1.8,6.6,1.8c7.3,0,13.3-6,13.3-13.3s-6-13.2-13.3-13.2c-2.4,0-4.6,0.6-6.6,1.8
		c0.2-0.1,0.4-0.1,0.6-0.1c6.4,0,11.5,5.1,11.5,11.5s-5.2,11.5-11.5,11.5C22.1,39.8,21.9,39.8,21.7,39.8z"/>
	<polygon class="st1" points="25.5,24.8 24,23.6 22.2,24.2 22.8,22.4 21.7,20.9 23.6,20.9 24.8,19.4 25.3,21.2 27.1,21.8 25.5,22.9 
			"/>
</g>
</svg>
