<?xml version="1.0" encoding="utf-8"?>
<!-- Generator: Adobe Illustrator 25.2.1, SVG Export Plug-In . SVG Version: 6.00 Build 0)  -->
<svg version="1.1" id="Layer_1" xmlns="http://www.w3.org/2000/svg" xmlns:xlink="http://www.w3.org/1999/xlink" x="0px" y="0px"
	 viewBox="0 0 56.7 56.7" style="enable-background:new 0 0 56.7 56.7;" xml:space="preserve">
<style type="text/css">
	.st0{fill:#FFF200;}
	.st1{fill:#FFFFFF;}
	.st2{fill:#85BFFF;}
	.st3{fill:none;stroke:#FFF200;stroke-width:3;stroke-linecap:round;stroke-miterlimit:10;}
</style>
<circle class="st0" cx="28.3" cy="28.3" r="9.7"/>
<path class="st1" d="M21.2,30.4c1.4,2.6,4.1,4.3,7.1,4.3s5.8-1.7,7.1-4.3H21.2z"/>
<circle class="st2" cx="23.3" cy="24.8" r="2.1"/>
<circle class="st1" cx="23.5" cy="25.2" r="1.1"/>
<circle class="st2" cx="33.4" cy="24.8" r="2.1"/>
<line class="st3" x1="39.9" y1="28.3" x2="41.6" y2="28.3"/>
<line class="st3" x1="15.1" y1="28.3" x2="16.8" y2="28.3"/>
<line class="st3" x1="28.4" y1="41.6" x2="28.4" y2="40"/>
<line class="st3" x1="28.4" y1="16.7" x2="28.4" y2="15.1"/>
<line class="st3" x1="18.6" y1="18.7" x2="19.8" y2="19.8"/>
<line class="st3" x1="36.8" y1="36.9" x2="38.1" y2="38.1"/>
<line class="st3" x1="38.1" y1="18.7" x2="36.8" y2="19.8"/>
<line class="st3" x1="19.8" y1="36.9" x2="18.6" y2="38.1"/>
<circle class="st1" cx="32.8" cy="25.2" r="1.1"/>
</svg>
