<?xml version="1.0" encoding="utf-8"?>
<!-- Generator: Adobe Illustrator 25.2.1, SVG Export Plug-In . SVG Version: 6.00 Build 0)  -->
<svg version="1.1" id="Réteg_1" xmlns="http://www.w3.org/2000/svg" xmlns:xlink="http://www.w3.org/1999/xlink" x="0px" y="0px"
	 viewBox="0 0 56.7 56.7" style="enable-background:new 0 0 56.7 56.7;" xml:space="preserve">
<style type="text/css">
	.st0{fill:#FFA500;}
	.st1{fill:#FFFFFF;}
</style>
<polyline class="st0" points="28.4,42 43.1,27.2 43.1,21.6 38.9,17.3 31.1,17.3 28.3,20.1 25.6,17.5 18.5,17.5 13.8,22.2 13.8,28 
	28.5,42.4 "/>
<g>
	<g>
		<g>
			<path class="st1" d="M28.4,55.7c15.1,0,27.3-12.3,27.3-27.3C55.7,13.3,43.4,1,28.4,1C13.3,1,1,13.3,1,28.4S13.3,55.7,28.4,55.7z
				 M28.4,4.9c12.9,0,23.5,10.5,23.5,23.5c0,12.9-10.5,23.5-23.5,23.5c-12.9,0-23.5-10.5-23.5-23.5C4.9,15.4,15.4,4.9,28.4,4.9z"/>
			<path class="st1" d="M27,43.9L27,43.9c0.4,0.4,0.9,0.6,1.4,0.6l0,0c0.5,0,1-0.2,1.4-0.6L42,31.7c1.8-1.8,2.8-4.2,2.8-6.8
				s-1-5-2.8-6.8s-4.2-2.8-6.8-2.8s-5,1-6.8,2.8l-0.1,0.1l-0.1-0.1c-1.8-1.8-4.2-2.8-6.8-2.8s-5,1-6.8,2.8c-3.7,3.7-3.7,9.8,0,13.6
				L27,43.9z M17.4,20.9c1.1-1.1,2.5-1.7,4-1.7s3,0.6,4,1.7l1.5,1.5c0.8,0.8,2,0.8,2.7,0l1.5-1.5c1.1-1.1,2.5-1.7,4-1.7s3,0.6,4,1.7
				c1.1,1.1,1.7,2.5,1.7,4s-0.6,3-1.7,4l-10.7,11l-11-11c-1.1-1.1-1.7-2.5-1.7-4C15.8,23.4,16.4,21.9,17.4,20.9z"/>
		</g>
	</g>
</g>
</svg>
