<?xml version="1.0" encoding="utf-8"?>
<!-- Generator: Adobe Illustrator 25.2.1, SVG Export Plug-In . SVG Version: 6.00 Build 0)  -->
<svg version="1.1" id="Réteg_1" xmlns="http://www.w3.org/2000/svg" xmlns:xlink="http://www.w3.org/1999/xlink" x="0px" y="0px"
	 viewBox="0 0 56.7 56.7" style="enable-background:new 0 0 56.7 56.7;" xml:space="preserve">
<style type="text/css">
	.st0{fill:#FFFFFF;}
</style>
<path class="st0" d="M8.9,47.2c4.9,5.1,11.8,8.3,19.5,8.3c14.9,0,27.1-12.2,27.1-27.1S43.3,1.2,28.4,1.2S1.2,13.4,1.2,28.4
	C1.2,35.5,4,42,8.5,46.8C8.6,47,8.7,47.1,8.9,47.2z M28.4,52.3c-5.9,0-11.3-2.1-15.5-5.7c7-2.3,9.6-5.2,10.6-7.1
	c1.3,0.6,2.8,0.9,4.5,0.9h0.1h0.1h0.1c1.8,0,3.4-0.4,4.8-1.1c0.9,1.9,3.5,4.8,10.7,7.2C39.6,50.2,34.3,52.3,28.4,52.3z M19.6,23.3
	L19.6,23.3c0.4-8.3,6.4-9,8.3-9c0.1,0,0.1,0,0.2,0s0.1,0,0.1,0c0.1,0,0.1,0,0.2,0c1.9,0,7.9,0.6,8.3,8.9v0.1c0,0.1,0.8,7.7-2.8,11.7
	c-1.4,1.6-3.3,2.4-5.7,2.4h-0.1l0,0c0,0,0,0-0.1,0c-2.5,0-4.3-0.8-5.7-2.4C18.8,31,19.6,23.4,19.6,23.3z M28.4,4.4
	c13.2,0,24,10.8,24,24c0,6.1-2.3,11.6-6,15.8c-10.2-3-10.6-6.6-10.6-6.6c0,0.1,0,0.1,0,0.1h-0.1c0.2-0.2,0.4-0.4,0.6-0.6
	c4.3-4.9,3.6-13.2,3.5-14c-0.4-8.7-6.4-11.8-11.4-11.8c-0.1,0-0.2,0-0.2,0c-0.1,0-0.1,0-0.2,0c-5,0-11,3.1-11.4,11.8
	c-0.1,0.8-0.8,9.1,3.5,14c0.2,0.3,0.5,0.6,0.8,0.8c-0.3,0.9-2,3.8-10.5,6.3c-3.7-4.2-6-9.8-6-15.8C4.4,15.1,15.1,4.4,28.4,4.4z"/>
</svg>
