<?xml version="1.0" encoding="utf-8"?>
<!-- Generator: Adobe Illustrator 25.2.1, SVG Export Plug-In . SVG Version: 6.00 Build 0)  -->
<svg version="1.1" id="Réteg_1" xmlns="http://www.w3.org/2000/svg" xmlns:xlink="http://www.w3.org/1999/xlink" x="0px" y="0px"
	 viewBox="0 0 56.7 56.7" style="enable-background:new 0 0 56.7 56.7;" xml:space="preserve">
<style type="text/css">
	.st0{fill:#85BFFF;}
</style>
<g>
	<path class="st0" d="M13.2,42.2c-2.6,0-4.8,2.1-4.8,4.8s2.1,4.8,4.8,4.8c2.6,0,4.8-2.1,4.8-4.8S16,42.2,13.2,42.2z M13.2,48.8
		c-1,0-1.8-0.8-1.8-1.8s0.8-1.8,1.8-1.8s1.8,0.8,1.8,1.8C15.1,48,14.2,48.8,13.2,48.8z"/>
	<path class="st0" d="M38.7,42.2c-2.6,0-4.8,2.1-4.8,4.8s2.1,4.8,4.8,4.8c2.6,0,4.8-2.1,4.8-4.8S41.2,42.2,38.7,42.2z M38.7,48.8
		c-1,0-1.8-0.8-1.8-1.8s0.8-1.8,1.8-1.8s1.8,0.8,1.8,1.8S39.7,48.8,38.7,48.8z"/>
	<path class="st0" d="M45.5,5l-1,5.9H5.2l2.8,17.2c0.4,2.4,2.6,4.3,5.1,4.3H41l-0.6,3.9H9.9v2.9h32.9L48,7.8h3.5V5H45.5z M41.5,29.5
		H13.1c-1,0-2-0.9-2.2-1.8L8.6,13.8h35.4L41.5,29.5z"/>
</g>
</svg>
