<?xml version="1.0" encoding="utf-8"?>
<!-- Generator: Adobe Illustrator 27.0.1, SVG Export Plug-In . SVG Version: 6.00 Build 0)  -->
<svg version="1.1" id="Réteg_1" xmlns="http://www.w3.org/2000/svg" xmlns:xlink="http://www.w3.org/1999/xlink" x="0px" y="0px"
	 viewBox="0 0 211.7 85" style="enable-background:new 0 0 211.7 85;" xml:space="preserve">
<style type="text/css">
	.st0{fill:#3DC0F0;}
	.st1{enable-background:new    ;}
	.st2{fill:#FFFFFF;}
	.st3{fill:#30B1CE;}
</style>
<path class="st0" d="M194.1,50.5v-8h-7.9l-4.1-3.7h-7.2v3.7h-15.5v-4.2l-1.3-0.1l-3.7,4.3h-33.7v8.6h-15.5V38.2H91.6v4.3H41.3v-4.3
	h-3.4v4.3H21.2v-4.3h-3.2v4.3H4.8c0,0.1,0,0.3,0,0.4v35c0,2.6,2.1,4.7,4.7,4.7h193.2c2.6,0,4.7-2,4.7-4.6V50.5H194.1z"/>
<g class="st1">
	<path class="st2" d="M24.6,68.1V56.2h2v11.9c0,1.6,0.6,3,1.7,4.2c1.2,1.2,2.6,1.7,4.2,1.7s3-0.6,4.2-1.7c1.2-1.2,1.7-2.6,1.7-4.2
		v-9.9l2-2v11.9c0,2.2-0.8,4.1-2.3,5.6S34.7,76,32.5,76s-4.1-0.8-5.6-2.3c-0.5-0.5-1-1.1-1.3-1.7c-0.3,0.6-0.8,1.2-1.3,1.7
		c-1.5,1.5-3.4,2.3-5.6,2.3s-4.1-0.8-5.6-2.3s-2.3-3.4-2.3-5.6V56.2h2v11.9c0,1.6,0.6,3,1.7,4.2c1.2,1.2,2.6,1.7,4.2,1.7
		s3-0.6,4.2-1.7C24.1,71.1,24.6,69.7,24.6,68.1z"/>
	<path class="st2" d="M50.4,67.1c0.2,1.8,0.9,3.3,2.3,4.6c1.5,1.5,3.4,2.3,5.6,2.3s4.1-0.8,5.6-2.3c0.8-0.8,1.4-1.7,1.8-2.6h2.1
		c-0.4,1.5-1.3,2.8-2.5,4C63.4,75,61,76,58.3,76s-5.1-1-7-2.9s-2.9-4.3-2.9-7c0-2.7,1-5.1,2.9-7s4.3-2.9,7-2.9s5.1,1,7,2.9
		c1.9,1.9,2.9,4.3,2.9,7c0,0.3,0,0.7,0,1H50.4z M66.1,65.1c-0.2-1.8-0.9-3.3-2.3-4.6c-1.5-1.5-3.4-2.3-5.6-2.3s-4.1,0.8-5.6,2.3
		c-1.3,1.3-2.1,2.8-2.3,4.6H66.1z"/>
	<path class="st2" d="M78.1,60.1c0.3-0.4,0.6-0.7,0.9-1c1.9-1.9,4.3-2.9,7-2.9s5.1,1,7,2.9s2.9,4.3,2.9,7c0,2.7-1,5.1-2.9,7
		C91,75,88.7,76,86,76s-5.1-1-7-2.9s-2.9-4.3-2.9-7V48.3l2,2V60.1z M86,74c2.2,0,4.1-0.8,5.6-2.3s2.3-3.4,2.3-5.6
		c0-2.2-0.8-4.1-2.3-5.6s-3.4-2.3-5.6-2.3s-4.1,0.8-5.6,2.3s-2.3,3.4-2.3,5.6s0.8,4.1,2.3,5.6S83.8,74,86,74z"/>
	<path class="st2" d="M109.2,67.1c-1.5,0-2.8-0.5-3.8-1.6c-1.1-1.1-1.6-2.3-1.6-3.8s0.5-2.8,1.6-3.8c1.1-1.1,2.3-1.6,3.8-1.6h8.4v2
		h-8.4c-1,0-1.8,0.3-2.4,1s-1,1.5-1,2.4c0,1,0.3,1.8,1,2.4c0.7,0.6,1.5,1,2.4,1h3c1.5,0,2.8,0.5,3.8,1.6c1.1,1.1,1.6,2.3,1.6,3.8
		s-0.5,2.8-1.6,3.8s-2.3,1.6-3.8,1.6h-8.4v-2h8.4c1,0,1.8-0.3,2.4-1c0.7-0.7,1-1.5,1-2.4c0-1-0.3-1.8-1-2.4c-0.7-0.7-1.5-1-2.4-1
		C112.2,67.1,109.2,67.1,109.2,67.1z"/>
	<path class="st2" d="M125.6,48.3l2,2v9.9c0.3-0.4,0.6-0.7,0.9-1c1.9-1.9,4.3-2.9,7-2.9s5.1,1,7,2.9s2.9,4.3,2.9,7V76h-2v-9.9
		c0-2.2-0.8-4.1-2.3-5.6s-3.4-2.3-5.6-2.3c-2.2,0-4.1,0.8-5.6,2.3s-2.3,3.4-2.3,5.6V76h-2L125.6,48.3L125.6,48.3z"/>
	<path class="st2" d="M163.2,76c-2.7,0-5.1-1-7-2.9s-2.9-4.3-2.9-7c0-2.7,1-5.1,2.9-7s4.3-2.9,7-2.9s5.1,1,7,2.9s2.9,4.3,2.9,7
		c0,2.7-1,5.1-2.9,7C168.2,75,165.9,76,163.2,76z M163.2,74c2.2,0,4.1-0.8,5.6-2.3s2.3-3.4,2.3-5.6c0-2.2-0.8-4.1-2.3-5.6
		s-3.4-2.3-5.6-2.3c-2.2,0-4.1,0.8-5.6,2.3s-2.3,3.4-2.3,5.6s0.8,4.1,2.3,5.6C159.1,73.2,161,74,163.2,74z"/>
	<path class="st2" d="M181,66.1c0-2.7,1-5.1,2.9-7s4.3-2.9,7-2.9s5.1,1,7,2.9s2.9,4.3,2.9,7c0,2.7-1,5.1-2.9,7s-4.3,2.9-7,2.9
		s-5.1-1-7-2.9c-0.3-0.3-0.7-0.7-0.9-1v5.7l-2,2V66.1z M190.9,58.2c-2.2,0-4.1,0.8-5.6,2.3s-2.3,3.4-2.3,5.6s0.8,4.1,2.3,5.6
		s3.4,2.3,5.6,2.3c2.2,0,4.1-0.8,5.6-2.3s2.3-3.4,2.3-5.6c0-2.2-0.8-4.1-2.3-5.6S193.1,58.2,190.9,58.2z"/>
</g>
<g>
	<path class="st3" d="M4.8,38.7V12.4h39.6l9.9,8.8v17.5h-9.9V21.2h-9.9v17.5h-9.9V21.2h-9.9v17.5H4.8z"/>
	<path class="st3" d="M59.2,38.7V21.2l9.9-8.8H79V3.7h9.9v35H59.2z M79,29.9v-8.8h-9.9v8.8C69.1,29.9,79,29.9,79,29.9z"/>
	<path class="st3" d="M108.6,47.5v-35h19.8l9.9,8.8v17.5h-19.8v8.8L108.6,47.5L108.6,47.5z M128.4,29.9v-8.8h-9.9v8.8
		C118.5,29.9,128.4,29.9,128.4,29.9z"/>
	<path class="st3" d="M143.2,38.7V12.4h29.7v26.3H163V21.2h-9.9V30h9.9l-9.9,8.8L143.2,38.7L143.2,38.7z"/>
	<path class="st3" d="M197.7,47.5v-8.8h-9.9l-9.9-8.8V12.4h9.9v17.5h9.9V12.4h9.9v35L197.7,47.5L197.7,47.5z"/>
</g>
</svg>
